<svg xmlns="http://www.w3.org/2000/svg" viewBox="0 0 180 180">
  <defs>
    <linearGradient id="bg" x1="0" y1="0" x2="1" y2="1">
      <stop offset="0%" stop-color="#22130F" />
      <stop offset="100%" stop-color="#3A1E14" />
    </linearGradient>
    <linearGradient id="fireOuter" x1="0.2" y1="0" x2="0.8" y2="1">
      <stop offset="0%" stop-color="#FFD36A" />
      <stop offset="45%" stop-color="#FF8A2A" />
      <stop offset="100%" stop-color="#F0431F" />
    </linearGradient>
    <linearGradient id="fireInner" x1="0.3" y1="0" x2="0.7" y2="1">
      <stop offset="0%" stop-color="#FFF6D8" />
      <stop offset="100%" stop-color="#FFC65B" />
    </linearGradient>
  </defs>
  <rect x="12" y="12" width="156" height="156" rx="36" fill="url(#bg)" />
  <circle cx="90" cy="95" r="50" fill="#FF6A1A" opacity=".2" />
  <path d="M90 34c22 19 39 39 39 66 0 28-17 45-39 53-22-8-39-25-39-53 0-27 17-47 39-66Z" fill="url(#fireOuter)" />
  <path d="M90 71c12 11 20 21 20 35 0 14-8 24-20 30-12-6-20-16-20-30 0-14 8-24 20-35Z" fill="url(#fireInner)" />
</svg>
