<svg xmlns="http://www.w3.org/2000/svg" viewBox="0 0 64 64">
  <defs>
    <linearGradient id="bg" x1="0" y1="0" x2="1" y2="1">
      <stop offset="0%" stop-color="#22130F" />
      <stop offset="100%" stop-color="#3A1E14" />
    </linearGradient>
    <linearGradient id="fireOuter" x1="0.2" y1="0" x2="0.8" y2="1">
      <stop offset="0%" stop-color="#FFD36A" />
      <stop offset="45%" stop-color="#FF8A2A" />
      <stop offset="100%" stop-color="#F0431F" />
    </linearGradient>
    <linearGradient id="fireInner" x1="0.3" y1="0" x2="0.7" y2="1">
      <stop offset="0%" stop-color="#FFF6D8" />
      <stop offset="100%" stop-color="#FFC65B" />
    </linearGradient>
  </defs>
  <rect x="4" y="4" width="56" height="56" rx="14" fill="url(#bg)" />
  <circle cx="32" cy="34" r="18" fill="#FF6A1A" opacity=".2" />
  <path d="M32 11c8 7 14 14 14 24 0 10-6 16-14 19-8-3-14-9-14-19 0-10 6-17 14-24Z" fill="url(#fireOuter)" />
  <path d="M32 24c4 4 7 8 7 13 0 5-3 9-7 11-4-2-7-6-7-11 0-5 3-9 7-13Z" fill="url(#fireInner)" />
</svg>
